<mxfile host="app.diagrams.net" modified="2023-12-26T11:04:52.445Z" agent="Mozilla/5.0 (Windows NT 10.0; Win64; x64) AppleWebKit/537.36 (KHTML, like Gecko) Chrome/120.0.0.0 Safari/537.36 Edg/120.0.0.0" etag="0-Y-l2yKakDPT-YI2-17" version="22.1.11" type="device">
  <diagram name="Page-1" id="tS_MTwSimsmOlZavLWSE">
    <mxGraphModel dx="2896" dy="1628" grid="1" gridSize="10" guides="1" tooltips="1" connect="1" arrows="1" fold="1" page="1" pageScale="1" pageWidth="1100" pageHeight="850" math="0" shadow="0">
      <root>
        <mxCell id="0" />
        <mxCell id="1" parent="0" />
        <mxCell id="pdBfVeIIplgWkWYOJk5n-15" value="" style="edgeStyle=orthogonalEdgeStyle;rounded=0;orthogonalLoop=1;jettySize=auto;html=1;" parent="1" source="pdBfVeIIplgWkWYOJk5n-2" target="pdBfVeIIplgWkWYOJk5n-8" edge="1">
          <mxGeometry relative="1" as="geometry" />
        </mxCell>
        <mxCell id="pdBfVeIIplgWkWYOJk5n-2" value="Initialize &lt;br&gt;Energy, Dimension,&lt;br&gt;and UWSN&amp;nbsp;&lt;br&gt;Parameter" style="verticalLabelPosition=middle;verticalAlign=middle;html=1;shape=hexagon;perimeter=hexagonPerimeter2;arcSize=6;size=0.27;labelPosition=center;align=center;" parent="1" vertex="1">
          <mxGeometry x="100" y="10" width="133.33" height="80" as="geometry" />
        </mxCell>
        <mxCell id="pdBfVeIIplgWkWYOJk5n-7" value="" style="edgeStyle=orthogonalEdgeStyle;rounded=0;orthogonalLoop=1;jettySize=auto;html=1;" parent="1" source="pdBfVeIIplgWkWYOJk5n-6" target="pdBfVeIIplgWkWYOJk5n-2" edge="1">
          <mxGeometry relative="1" as="geometry" />
        </mxCell>
        <mxCell id="pdBfVeIIplgWkWYOJk5n-6" value="Start" style="strokeWidth=2;html=1;shape=mxgraph.flowchart.start_1;whiteSpace=wrap;" parent="1" vertex="1">
          <mxGeometry x="-39.99999999999997" y="20" width="100" height="60" as="geometry" />
        </mxCell>
        <mxCell id="pdBfVeIIplgWkWYOJk5n-8" value="Cluster Head Selection" style="whiteSpace=wrap;html=1;arcSize=6;" parent="1" vertex="1">
          <mxGeometry x="106.655" y="140" width="120" height="60" as="geometry" />
        </mxCell>
        <mxCell id="1w-vwHYSTyN3Q8X9Bu9C-12" value="" style="edgeStyle=orthogonalEdgeStyle;rounded=0;orthogonalLoop=1;jettySize=auto;html=1;" parent="1" source="pdBfVeIIplgWkWYOJk5n-13" target="1w-vwHYSTyN3Q8X9Bu9C-11" edge="1">
          <mxGeometry relative="1" as="geometry" />
        </mxCell>
        <mxCell id="pdBfVeIIplgWkWYOJk5n-13" value="Announce Cluster&lt;br&gt;Head Status" style="whiteSpace=wrap;html=1;arcSize=6;" parent="1" vertex="1">
          <mxGeometry x="300.005" y="260" width="120" height="60" as="geometry" />
        </mxCell>
        <mxCell id="1w-vwHYSTyN3Q8X9Bu9C-5" value="" style="edgeStyle=orthogonalEdgeStyle;rounded=0;orthogonalLoop=1;jettySize=auto;html=1;" parent="1" source="1w-vwHYSTyN3Q8X9Bu9C-1" target="pdBfVeIIplgWkWYOJk5n-13" edge="1">
          <mxGeometry relative="1" as="geometry" />
        </mxCell>
        <mxCell id="1w-vwHYSTyN3Q8X9Bu9C-7" value="" style="edgeStyle=orthogonalEdgeStyle;rounded=0;orthogonalLoop=1;jettySize=auto;html=1;" parent="1" source="1w-vwHYSTyN3Q8X9Bu9C-1" target="1w-vwHYSTyN3Q8X9Bu9C-6" edge="1">
          <mxGeometry relative="1" as="geometry" />
        </mxCell>
        <mxCell id="1w-vwHYSTyN3Q8X9Bu9C-1" value="Is Node &lt;br&gt;Cluster Head?" style="rhombus;whiteSpace=wrap;html=1;arcSize=6;" parent="1" vertex="1">
          <mxGeometry x="300" y="365" width="120" height="120" as="geometry" />
        </mxCell>
        <mxCell id="1w-vwHYSTyN3Q8X9Bu9C-14" value="" style="edgeStyle=orthogonalEdgeStyle;rounded=0;orthogonalLoop=1;jettySize=auto;html=1;" parent="1" source="1w-vwHYSTyN3Q8X9Bu9C-6" target="1w-vwHYSTyN3Q8X9Bu9C-13" edge="1">
          <mxGeometry relative="1" as="geometry" />
        </mxCell>
        <mxCell id="1w-vwHYSTyN3Q8X9Bu9C-6" value="Wait for &lt;br&gt;Cluster&amp;nbsp;Head &lt;br&gt;Announcements" style="whiteSpace=wrap;html=1;arcSize=6;" parent="1" vertex="1">
          <mxGeometry x="500" y="395" width="120" height="60" as="geometry" />
        </mxCell>
        <mxCell id="1w-vwHYSTyN3Q8X9Bu9C-20" value="" style="edgeStyle=orthogonalEdgeStyle;rounded=0;orthogonalLoop=1;jettySize=auto;html=1;" parent="1" source="1w-vwHYSTyN3Q8X9Bu9C-11" target="1w-vwHYSTyN3Q8X9Bu9C-19" edge="1">
          <mxGeometry relative="1" as="geometry" />
        </mxCell>
        <mxCell id="1w-vwHYSTyN3Q8X9Bu9C-11" value="Wait for join&lt;br&gt;request" style="whiteSpace=wrap;html=1;arcSize=6;" parent="1" vertex="1">
          <mxGeometry x="300.005" y="140" width="120" height="60" as="geometry" />
        </mxCell>
        <mxCell id="1w-vwHYSTyN3Q8X9Bu9C-17" value="" style="edgeStyle=orthogonalEdgeStyle;rounded=0;orthogonalLoop=1;jettySize=auto;html=1;" parent="1" source="1w-vwHYSTyN3Q8X9Bu9C-13" target="1w-vwHYSTyN3Q8X9Bu9C-16" edge="1">
          <mxGeometry relative="1" as="geometry" />
        </mxCell>
        <mxCell id="1w-vwHYSTyN3Q8X9Bu9C-13" value="&lt;br&gt;Is there any &lt;br&gt;Cluster head in the&amp;nbsp;&lt;font style=&quot;border-color: var(--border-color);&quot;&gt;r&lt;/font&gt;&lt;sub style=&quot;border-color: var(--border-color);&quot;&gt;&lt;font style=&quot;border-color: var(--border-color);&quot;&gt;max&lt;/font&gt;&lt;/sub&gt;&lt;br&gt;range?" style="rhombus;whiteSpace=wrap;html=1;arcSize=6;" parent="1" vertex="1">
          <mxGeometry x="500" y="230" width="120" height="120" as="geometry" />
        </mxCell>
        <mxCell id="1w-vwHYSTyN3Q8X9Bu9C-18" value="" style="edgeStyle=orthogonalEdgeStyle;rounded=0;orthogonalLoop=1;jettySize=auto;html=1;" parent="1" source="1w-vwHYSTyN3Q8X9Bu9C-16" target="1w-vwHYSTyN3Q8X9Bu9C-11" edge="1">
          <mxGeometry relative="1" as="geometry" />
        </mxCell>
        <mxCell id="1w-vwHYSTyN3Q8X9Bu9C-22" value="" style="edgeStyle=orthogonalEdgeStyle;rounded=0;orthogonalLoop=1;jettySize=auto;html=1;" parent="1" source="1w-vwHYSTyN3Q8X9Bu9C-16" target="1w-vwHYSTyN3Q8X9Bu9C-21" edge="1">
          <mxGeometry relative="1" as="geometry" />
        </mxCell>
        <mxCell id="1w-vwHYSTyN3Q8X9Bu9C-16" value="Send Join-Request message to chosen Cluster Head" style="whiteSpace=wrap;html=1;arcSize=6;" parent="1" vertex="1">
          <mxGeometry x="500" y="140" width="120" height="60" as="geometry" />
        </mxCell>
        <mxCell id="1w-vwHYSTyN3Q8X9Bu9C-25" value="" style="edgeStyle=orthogonalEdgeStyle;rounded=0;orthogonalLoop=1;jettySize=auto;html=1;" parent="1" source="1w-vwHYSTyN3Q8X9Bu9C-19" target="1w-vwHYSTyN3Q8X9Bu9C-21" edge="1">
          <mxGeometry relative="1" as="geometry" />
        </mxCell>
        <mxCell id="1w-vwHYSTyN3Q8X9Bu9C-19" value="Create TDMA Schedule and send to Cluster Members" style="whiteSpace=wrap;html=1;arcSize=6;" parent="1" vertex="1">
          <mxGeometry x="300.005" y="20" width="120" height="60" as="geometry" />
        </mxCell>
        <mxCell id="1w-vwHYSTyN3Q8X9Bu9C-49" value="" style="edgeStyle=orthogonalEdgeStyle;rounded=0;orthogonalLoop=1;jettySize=auto;html=1;exitX=0.5;exitY=0;exitDx=0;exitDy=0;entryX=0.5;entryY=0;entryDx=0;entryDy=0;" parent="1" source="1w-vwHYSTyN3Q8X9Bu9C-19" target="qXcfkgdeyemKclAxsXyS-1" edge="1">
          <mxGeometry relative="1" as="geometry">
            <mxPoint x="560" as="sourcePoint" />
            <Array as="points">
              <mxPoint x="360" y="-40" />
              <mxPoint x="750" y="-40" />
            </Array>
            <mxPoint x="920" y="-10" as="targetPoint" />
          </mxGeometry>
        </mxCell>
        <mxCell id="1w-vwHYSTyN3Q8X9Bu9C-21" value="Wait for schedule from Cluster Head" style="whiteSpace=wrap;html=1;arcSize=6;" parent="1" vertex="1">
          <mxGeometry x="500" y="20" width="120" height="60" as="geometry" />
        </mxCell>
        <mxCell id="1w-vwHYSTyN3Q8X9Bu9C-26" value="" style="endArrow=none;dashed=1;html=1;rounded=0;strokeWidth=2;dashPattern=1 2;" parent="1" edge="1">
          <mxGeometry width="50" height="50" relative="1" as="geometry">
            <mxPoint x="260" y="520" as="sourcePoint" />
            <mxPoint x="260" y="-80" as="targetPoint" />
          </mxGeometry>
        </mxCell>
        <mxCell id="1w-vwHYSTyN3Q8X9Bu9C-28" value="" style="endArrow=none;dashed=1;html=1;rounded=0;strokeWidth=2;dashPattern=1 2;" parent="1" edge="1">
          <mxGeometry width="50" height="50" relative="1" as="geometry">
            <mxPoint x="660" y="520" as="sourcePoint" />
            <mxPoint x="660" y="-80" as="targetPoint" />
          </mxGeometry>
        </mxCell>
        <mxCell id="1w-vwHYSTyN3Q8X9Bu9C-34" value="&lt;b&gt;Yes&lt;/b&gt;" style="text;html=1;strokeColor=none;fillColor=none;align=center;verticalAlign=middle;whiteSpace=wrap;rounded=0;" parent="1" vertex="1">
          <mxGeometry x="350" y="335" width="60" height="30" as="geometry" />
        </mxCell>
        <mxCell id="1w-vwHYSTyN3Q8X9Bu9C-35" value="&lt;b&gt;Yes&lt;/b&gt;" style="text;html=1;strokeColor=none;fillColor=none;align=center;verticalAlign=middle;whiteSpace=wrap;rounded=0;" parent="1" vertex="1">
          <mxGeometry x="550" y="210" width="60" height="30" as="geometry" />
        </mxCell>
        <mxCell id="1w-vwHYSTyN3Q8X9Bu9C-36" value="&lt;b&gt;No&lt;/b&gt;" style="text;html=1;strokeColor=none;fillColor=none;align=center;verticalAlign=middle;whiteSpace=wrap;rounded=0;" parent="1" vertex="1">
          <mxGeometry x="390" y="395" width="60" height="30" as="geometry" />
        </mxCell>
        <mxCell id="1w-vwHYSTyN3Q8X9Bu9C-37" value="&lt;b&gt;No&lt;/b&gt;" style="text;html=1;strokeColor=none;fillColor=none;align=center;verticalAlign=middle;whiteSpace=wrap;rounded=0;" parent="1" vertex="1">
          <mxGeometry x="600" y="260" width="60" height="30" as="geometry" />
        </mxCell>
        <mxCell id="1w-vwHYSTyN3Q8X9Bu9C-40" value="&lt;b&gt;&lt;font style=&quot;font-size: 15px;&quot;&gt;Setup Phase&lt;/font&gt;&lt;/b&gt;" style="text;html=1;strokeColor=none;fillColor=none;align=center;verticalAlign=middle;whiteSpace=wrap;rounded=0;" parent="1" vertex="1">
          <mxGeometry x="430" y="-80" width="110" height="30" as="geometry" />
        </mxCell>
        <mxCell id="1w-vwHYSTyN3Q8X9Bu9C-43" value="&lt;b&gt;&lt;font style=&quot;font-size: 15px;&quot;&gt;Initialization&lt;/font&gt;&lt;/b&gt;" style="text;html=1;strokeColor=none;fillColor=none;align=center;verticalAlign=middle;whiteSpace=wrap;rounded=0;" parent="1" vertex="1">
          <mxGeometry x="111.65999999999997" y="-80" width="110" height="30" as="geometry" />
        </mxCell>
        <mxCell id="1w-vwHYSTyN3Q8X9Bu9C-44" value="&lt;b&gt;&lt;font style=&quot;font-size: 15px;&quot;&gt;Steady State Phase&lt;/font&gt;&lt;/b&gt;" style="text;html=1;strokeColor=none;fillColor=none;align=center;verticalAlign=middle;whiteSpace=wrap;rounded=0;" parent="1" vertex="1">
          <mxGeometry x="740" y="-80" width="160" height="30" as="geometry" />
        </mxCell>
        <mxCell id="qXcfkgdeyemKclAxsXyS-6" value="" style="edgeStyle=orthogonalEdgeStyle;rounded=0;orthogonalLoop=1;jettySize=auto;html=1;" edge="1" parent="1" source="1w-vwHYSTyN3Q8X9Bu9C-47" target="1w-vwHYSTyN3Q8X9Bu9C-50">
          <mxGeometry relative="1" as="geometry" />
        </mxCell>
        <mxCell id="1w-vwHYSTyN3Q8X9Bu9C-47" value="Send data to &lt;br&gt;Base Station" style="whiteSpace=wrap;html=1;arcSize=6;" parent="1" vertex="1">
          <mxGeometry x="690" y="140" width="120" height="60" as="geometry" />
        </mxCell>
        <mxCell id="1w-vwHYSTyN3Q8X9Bu9C-53" value="" style="edgeStyle=orthogonalEdgeStyle;rounded=0;orthogonalLoop=1;jettySize=auto;html=1;" parent="1" source="1w-vwHYSTyN3Q8X9Bu9C-50" target="1w-vwHYSTyN3Q8X9Bu9C-52" edge="1">
          <mxGeometry relative="1" as="geometry" />
        </mxCell>
        <mxCell id="1w-vwHYSTyN3Q8X9Bu9C-50" value="Calculate Energy Consumption, Node Alive and Packet Delivery Ratio" style="whiteSpace=wrap;html=1;arcSize=6;" parent="1" vertex="1">
          <mxGeometry x="690" y="260" width="120" height="60" as="geometry" />
        </mxCell>
        <mxCell id="1w-vwHYSTyN3Q8X9Bu9C-52" value="Selesai" style="ellipse;whiteSpace=wrap;html=1;" parent="1" vertex="1">
          <mxGeometry x="685" y="383" width="130" height="85" as="geometry" />
        </mxCell>
        <mxCell id="qXcfkgdeyemKclAxsXyS-2" value="" style="edgeStyle=orthogonalEdgeStyle;rounded=0;orthogonalLoop=1;jettySize=auto;html=1;" edge="1" parent="1" source="qXcfkgdeyemKclAxsXyS-1" target="1w-vwHYSTyN3Q8X9Bu9C-47">
          <mxGeometry relative="1" as="geometry" />
        </mxCell>
        <mxCell id="qXcfkgdeyemKclAxsXyS-4" value="" style="edgeStyle=orthogonalEdgeStyle;rounded=0;orthogonalLoop=1;jettySize=auto;html=1;" edge="1" parent="1" source="qXcfkgdeyemKclAxsXyS-1" target="qXcfkgdeyemKclAxsXyS-3">
          <mxGeometry relative="1" as="geometry" />
        </mxCell>
        <mxCell id="qXcfkgdeyemKclAxsXyS-1" value="&lt;p style=&quot;line-height: 0%; font-size: 10px;&quot;&gt;&lt;font style=&quot;font-size: 12px;&quot;&gt;d&lt;sub style=&quot;&quot;&gt;CH-BS&amp;nbsp;&lt;/sub&gt;&lt;/font&gt;&lt;span style=&quot;background-color: initial; text-align: left; vertical-align: sub; font-size: 12px;&quot;&gt;&amp;nbsp;&lt;/span&gt;&lt;/p&gt;&lt;font style=&quot;border-color: var(--border-color);&quot;&gt;&amp;gt;&lt;br&gt;r&lt;/font&gt;&lt;sub style=&quot;border-color: var(--border-color);&quot;&gt;&lt;font style=&quot;border-color: var(--border-color);&quot;&gt;max&amp;nbsp;&lt;span style=&quot;background-color: initial; font-size: 12px; text-align: left;&quot;&gt;?&lt;/span&gt;&lt;br&gt;&lt;/font&gt;&lt;/sub&gt;" style="rhombus;whiteSpace=wrap;html=1;arcSize=6;" vertex="1" parent="1">
          <mxGeometry x="690" width="120" height="100" as="geometry" />
        </mxCell>
        <mxCell id="qXcfkgdeyemKclAxsXyS-3" value="Cluster Head and Node within Cluster became Orphan Node" style="whiteSpace=wrap;html=1;arcSize=6;" vertex="1" parent="1">
          <mxGeometry x="860" y="20" width="120" height="60" as="geometry" />
        </mxCell>
        <mxCell id="qXcfkgdeyemKclAxsXyS-10" value="" style="edgeStyle=orthogonalEdgeStyle;rounded=0;orthogonalLoop=1;jettySize=auto;html=1;" edge="1" parent="1" source="qXcfkgdeyemKclAxsXyS-8" target="pdBfVeIIplgWkWYOJk5n-8">
          <mxGeometry relative="1" as="geometry" />
        </mxCell>
        <mxCell id="qXcfkgdeyemKclAxsXyS-12" value="" style="edgeStyle=orthogonalEdgeStyle;rounded=0;orthogonalLoop=1;jettySize=auto;html=1;entryX=0;entryY=0.5;entryDx=0;entryDy=0;exitX=0;exitY=0.5;exitDx=0;exitDy=0;" edge="1" parent="1" source="qXcfkgdeyemKclAxsXyS-8" target="pdBfVeIIplgWkWYOJk5n-8">
          <mxGeometry relative="1" as="geometry">
            <mxPoint x="26.659999999999854" y="425.5" as="targetPoint" />
            <Array as="points">
              <mxPoint x="70" y="290" />
              <mxPoint x="70" y="170" />
            </Array>
          </mxGeometry>
        </mxCell>
        <mxCell id="qXcfkgdeyemKclAxsXyS-16" value="" style="edgeStyle=orthogonalEdgeStyle;rounded=0;orthogonalLoop=1;jettySize=auto;html=1;" edge="1" parent="1" source="qXcfkgdeyemKclAxsXyS-8" target="qXcfkgdeyemKclAxsXyS-15">
          <mxGeometry relative="1" as="geometry" />
        </mxCell>
        <mxCell id="qXcfkgdeyemKclAxsXyS-8" value="&lt;p style=&quot;line-height: 0%; font-size: 10px;&quot;&gt;&lt;font style=&quot;font-size: 12px;&quot;&gt;d&lt;sub style=&quot;&quot;&gt;CH-BS&amp;nbsp;&lt;/sub&gt;&lt;/font&gt;&lt;span style=&quot;background-color: initial; text-align: left; vertical-align: sub; font-size: 12px;&quot;&gt;&amp;nbsp;&lt;/span&gt;&lt;/p&gt;&lt;font style=&quot;border-color: var(--border-color);&quot;&gt;&amp;gt;&lt;br&gt;r&lt;/font&gt;&lt;sub style=&quot;border-color: var(--border-color);&quot;&gt;&lt;font style=&quot;border-color: var(--border-color);&quot;&gt;max&amp;nbsp;&lt;span style=&quot;background-color: initial; font-size: 12px; text-align: left;&quot;&gt;?&lt;/span&gt;&lt;br&gt;&lt;/font&gt;&lt;/sub&gt;" style="rhombus;whiteSpace=wrap;html=1;arcSize=6;" vertex="1" parent="1">
          <mxGeometry x="106.66" y="230" width="120" height="120" as="geometry" />
        </mxCell>
        <mxCell id="qXcfkgdeyemKclAxsXyS-13" value="&lt;b&gt;No&lt;/b&gt;" style="text;html=1;strokeColor=none;fillColor=none;align=center;verticalAlign=middle;whiteSpace=wrap;rounded=0;" vertex="1" parent="1">
          <mxGeometry x="173.32999999999998" y="320" width="60" height="30" as="geometry" />
        </mxCell>
        <mxCell id="qXcfkgdeyemKclAxsXyS-14" value="&lt;b&gt;Yes&lt;/b&gt;" style="text;html=1;strokeColor=none;fillColor=none;align=center;verticalAlign=middle;whiteSpace=wrap;rounded=0;" vertex="1" parent="1">
          <mxGeometry x="70" y="260" width="60" height="30" as="geometry" />
        </mxCell>
        <mxCell id="qXcfkgdeyemKclAxsXyS-17" value="" style="edgeStyle=orthogonalEdgeStyle;rounded=0;orthogonalLoop=1;jettySize=auto;html=1;" edge="1" parent="1" source="qXcfkgdeyemKclAxsXyS-15" target="1w-vwHYSTyN3Q8X9Bu9C-1">
          <mxGeometry relative="1" as="geometry" />
        </mxCell>
        <mxCell id="qXcfkgdeyemKclAxsXyS-15" value="Selected node will become Cluster &lt;br&gt;Head&amp;nbsp;" style="whiteSpace=wrap;html=1;arcSize=6;" vertex="1" parent="1">
          <mxGeometry x="106.65" y="395" width="120" height="60" as="geometry" />
        </mxCell>
      </root>
    </mxGraphModel>
  </diagram>
</mxfile>
